# xmcd
#
# Track frame offsets:
#	150
#	18351
#	36198
#	57021
#	74745
#	91058
#	102346
#	125309
#	140278
#	155365
#	168151
#	186866
#
# Disc length: 2630 seconds
#
# Revision: 1
# Processed by: cddbd v1.5.1PL0 Copyright (c) Steve Scherf et al.
# Submitted via: audiograbber 1.82.02
#
DISCID=970a440c
DTITLE=Maia Sharp - Fine Upstanding Citizen
DYEAR=2005
DGENRE=Country
TTITLE0=Red Dress
TTITLE1=Something Wild
TTITLE2=A Home
TTITLE3=The Reminder
TTITLE4=Regular Jane
TTITLE5=Flood
TTITLE6=Kinder Blues
TTITLE7=Firefly
TTITLE8=Wisdom
TTITLE9=Fall Like Margarite
TTITLE10=Come Back to Me
TTITLE11=Fine Upstanding Citizen
EXTD=Koch Records
EXTT0=
EXTT1=
EXTT2=
EXTT3=
EXTT4=
EXTT5=
EXTT6=
EXTT7=
EXTT8=
EXTT9=
EXTT10=
EXTT11=
PLAYORDER=
